<svg height="782" width="720" xmlns="http://www.w3.org/2000/svg">
<rect height="782" fill="#555" width="720"></rect>
<text fill="#7f7" font-family="Courier New" font-size="12" xml:space="preserve">
<tspan x="10" y="26">29 megabytes installed</tspan>
<tspan x="10" y="42"></tspan>
<tspan x="10" y="58">node_modules</tspan>
<tspan x="10" y="74">├── UNMET PEER DEPENDENCY react@^0.14.0 || ^15.0.0</tspan>
<tspan x="10" y="90">└─┬ recharts@0.22.3 </tspan>
<tspan x="10" y="106">  ├── classnames@2.2.5 </tspan>
<tspan x="10" y="122">  ├── core-js@2.4.1 </tspan>
<tspan x="10" y="138">  ├─┬ d3-scale@1.0.4 </tspan>
<tspan x="10" y="154">  │ ├── d3-array@1.2.0 </tspan>
<tspan x="10" y="170">  │ ├── d3-collection@1.0.3 </tspan>
<tspan x="10" y="186">  │ ├── d3-color@1.0.3 </tspan>
<tspan x="10" y="202">  │ ├── d3-format@1.2.0 </tspan>
<tspan x="10" y="218">  │ ├── d3-interpolate@1.1.4 </tspan>
<tspan x="10" y="234">  │ ├── d3-time@1.0.6 </tspan>
<tspan x="10" y="250">  │ └── d3-time-format@2.0.5 </tspan>
<tspan x="10" y="266">  ├─┬ d3-shape@1.0.4 </tspan>
<tspan x="10" y="282">  │ └── d3-path@1.0.5 </tspan>
<tspan x="10" y="298">  ├── lodash@4.17.4 </tspan>
<tspan x="10" y="314">  ├─┬ prop-types@15.5.8 </tspan>
<tspan x="10" y="330">  │ └─┬ fbjs@0.8.12 </tspan>
<tspan x="10" y="346">  │   ├── core-js@1.2.7 </tspan>
<tspan x="10" y="362">  │   ├─┬ isomorphic-fetch@2.2.1 </tspan>
<tspan x="10" y="378">  │   │ ├─┬ node-fetch@1.6.3 </tspan>
<tspan x="10" y="394">  │   │ │ ├─┬ encoding@0.1.12 </tspan>
<tspan x="10" y="410">  │   │ │ │ └── iconv-lite@0.4.16 </tspan>
<tspan x="10" y="426">  │   │ │ └── is-stream@1.1.0 </tspan>
<tspan x="10" y="442">  │   │ └── whatwg-fetch@2.0.3 </tspan>
<tspan x="10" y="458">  │   ├─┬ loose-envify@1.3.1 </tspan>
<tspan x="10" y="474">  │   │ └── js-tokens@3.0.1 </tspan>
<tspan x="10" y="490">  │   ├── object-assign@4.1.1 </tspan>
<tspan x="10" y="506">  │   ├─┬ promise@7.1.1 </tspan>
<tspan x="10" y="522">  │   │ └── asap@2.0.5 </tspan>
<tspan x="10" y="538">  │   ├── setimmediate@1.0.5 </tspan>
<tspan x="10" y="554">  │   └── ua-parser-js@0.7.12 </tspan>
<tspan x="10" y="570">  ├── UNMET PEER DEPENDENCY react@^0.14.7 || ^15.0.0</tspan>
<tspan x="10" y="586">  ├── UNMET PEER DEPENDENCY react-dom@^0.14.0 || ^15.0.0</tspan>
<tspan x="10" y="602">  ├── react-resize-detector@0.3.3 </tspan>
<tspan x="10" y="618">  ├─┬ react-smooth@0.1.20 </tspan>
<tspan x="10" y="634">  │ ├─┬ raf@3.3.0 </tspan>
<tspan x="10" y="650">  │ │ └── performance-now@0.2.0 </tspan>
<tspan x="10" y="666">  │ ├── UNMET PEER DEPENDENCY react@^15.4.2</tspan>
<tspan x="10" y="682">  │ └── react-addons-transition-group@15.5.2 </tspan>
<tspan x="10" y="698">  ├── recharts-scale@0.3.0 </tspan>
<tspan x="10" y="714">  └─┬ reduce-css-calc@1.3.0 </tspan>
<tspan x="10" y="730">    ├── balanced-match@0.4.2 </tspan>
<tspan x="10" y="746">    ├── math-expression-evaluator@1.2.16 </tspan>
<tspan x="10" y="762">    └── reduce-function-call@1.0.2</tspan>
</text>
</svg>
